<?xml version="1.0" encoding="UTF-8"?>
<svg version="1.1" xmlns="http://www.w3.org/2000/svg" width="810" height="810">
<path d="M0 0 C2.18331082 -0.0021636 4.36609628 -0.0202856 6.54931641 -0.03930664 C33.35520658 -0.14920503 61.02986058 7.07238289 82.21728516 24.18530273 C83.52052734 25.20817383 83.52052734 25.20817383 84.85009766 26.25170898 C87.32319588 28.20927799 89.77254078 30.19252791 92.21728516 32.18530273 C93.13896484 32.88268555 94.06064453 33.58006836 95.01025391 34.29858398 C96.10273437 35.23250977 96.10273437 35.23250977 97.21728516 36.18530273 C97.21728516 36.84530273 97.21728516 37.50530273 97.21728516 38.18530273 C98.1172522 38.57141724 98.1172522 38.57141724 99.03540039 38.96533203 C101.42669218 40.30238978 102.51250329 41.51287114 104.12744141 43.70483398 C104.64242188 44.39770508 105.15740234 45.09057617 105.68798828 45.80444336 C106.21328125 46.52825195 106.73857422 47.25206055 107.27978516 47.99780273 C107.80894531 48.71000977 108.33810547 49.4222168 108.88330078 50.15600586 C111.52134911 53.73408646 114.01913255 57.31381597 116.21728516 61.18530273 C122.87495235 60.72615327 128.75232619 59.26013083 135.10400391 57.22045898 C145.9265729 54.22260452 157.06043044 53.86629126 168.21728516 53.93530273 C169.46767578 53.92756836 170.71806641 53.91983398 172.00634766 53.91186523 C183.97009976 53.93663491 195.52427237 55.24782131 206.96728516 58.81030273 C207.80509521 59.06755127 208.64290527 59.3247998 209.50610352 59.58984375 C231.64115479 66.62704688 255.27119485 78.97352616 269.21728516 98.18530273 C269.21728516 98.84530273 269.21728516 99.50530273 269.21728516 100.18530273 C270.20728516 100.51530273 271.19728516 100.84530273 272.21728516 101.18530273 C273.56420898 102.76074219 273.56420898 102.76074219 274.92431641 104.79858398 C275.42568115 105.54599854 275.9270459 106.29341309 276.44360352 107.06347656 C276.96704346 107.8668042 277.4904834 108.67013184 278.02978516 109.49780273 C278.8371814 110.72696411 278.8371814 110.72696411 279.66088867 111.98095703 C300.99578771 144.89664231 305.99783473 184.66462531 298.17041016 222.86108398 C293.29006834 243.10427199 282.33505792 261.23980401 269.21728516 277.18530273 C268.75950684 277.76650879 268.30172852 278.34771484 267.83007812 278.9465332 C266.67162154 280.39725123 265.44949768 281.79668588 264.21728516 283.18530273 C263.55728516 283.18530273 262.89728516 283.18530273 262.21728516 283.18530273 C262.21728516 283.84530273 262.21728516 284.50530273 262.21728516 285.18530273 C259.78846537 287.76821683 256.95422842 289.93843429 254.21728516 292.18530273 C253.29560547 292.95487305 252.37392578 293.72444336 251.42431641 294.51733398 C231.8318739 310.28564956 210.39196628 317.53537726 186.21728516 323.18530273 C186.11706055 324.01553955 186.01683594 324.84577637 185.91357422 325.70117188 C182.12110741 356.6923335 182.12110741 356.6923335 178.21728516 368.18530273 C177.87181641 369.23331055 177.52634766 370.28131836 177.17041016 371.36108398 C172.11109137 385.5514336 164.75429893 398.54638132 155.21728516 410.18530273 C154.79189453 410.71607422 154.36650391 411.2468457 153.92822266 411.79370117 C131.68139437 439.52092503 101.13556148 456.3497071 65.77587891 460.79467773 C30.75179798 464.30708831 -4.3632898 456.22896064 -32.78271484 435.18530273 C-33.67603516 434.53303711 -34.56935547 433.88077148 -35.48974609 433.20874023 C-39.95576903 429.84626194 -43.93106948 426.23446838 -47.78271484 422.18530273 C-51.46195068 423.25034469 -54.7286034 424.64553152 -58.09521484 426.43530273 C-86.11854806 440.59314172 -122.63042234 444.81342402 -152.78271484 435.18530273 C-153.96776611 434.80728516 -153.96776611 434.80728516 -155.17675781 434.42163086 C-174.36818441 428.11149887 -190.14402426 418.96823242 -205.78271484 406.18530273 C-206.34861328 405.74444336 -206.91451172 405.30358398 -207.49755859 404.84936523 C-231.66426283 385.74677143 -245.94220095 351.15588145 -249.57106018 321.31040955 C-250.11423684 315.85667469 -250.00868374 310.35555557 -250.02294922 304.87939453 C-250.03258763 302.65219791 -250.06365098 300.42595306 -250.09521484 298.19897461 C-250.16688905 288.46572548 -249.06817971 279.6560216 -246.78271484 270.18530273 C-246.51491211 268.99795532 -246.51491211 268.99795532 -246.24169922 267.78662109 C-244.32034204 259.43682698 -241.61124654 251.83120424 -237.78271484 244.18530273 C-237.33025391 243.20948242 -236.87779297 242.23366211 -236.41162109 241.22827148 C-232.94307567 233.9057867 -228.7376052 227.5805682 -223.78271484 221.18530273 C-222.84685547 219.9594043 -222.84685547 219.9594043 -221.89208984 218.70874023 C-220.20756123 216.51885303 -218.50030525 214.34929658 -216.78271484 212.18530273 C-215.57615234 210.63842773 -215.57615234 210.63842773 -214.34521484 209.06030273 C-211.0886593 205.40660627 -207.53419384 202.31818679 -203.78271484 199.18530273 C-202.72310547 198.25911133 -202.72310547 198.25911133 -201.64208984 197.31420898 C-180.98138733 179.85099615 -154.55441264 169.743966 -127.78271484 167.18530273 C-128.24404087 161.01138629 -128.70843494 154.84387407 -129.34521484 148.68530273 C-131.33117899 126.29515862 -127.95879171 105.36118913 -120.78271484 84.18530273 C-120.53505371 83.44135254 -120.28739258 82.69740234 -120.03222656 81.9309082 C-114.58576445 65.9225436 -105.08335713 52.56464269 -93.78271484 40.18530273 C-93.11755859 39.44924805 -92.45240234 38.71319336 -91.76708984 37.95483398 C-82.34712388 28.04012191 -70.91519146 20.36849541 -58.78271484 14.18530273 C-58.11143555 13.84225098 -57.44015625 13.49919922 -56.74853516 13.14575195 C-44.87225441 7.202126 -32.80678534 3.68308843 -19.78271484 1.18530273 C-18.38327637 0.91484131 -18.38327637 0.91484131 -16.95556641 0.63891602 C-11.33456957 -0.16470141 -5.66755879 -0.00062653 0 0 Z M-48.78271484 90.18530273 C-60.93630027 104.27805021 -66.32868627 123.54166361 -65.04150391 141.92651367 C-63.21889458 157.83479809 -56.38778898 172.31074459 -45.78271484 184.18530273 C-45.09306641 184.96905273 -44.40341797 185.75280273 -43.69287109 186.56030273 C-32.70169406 198.32662607 -18.46170562 203.45647367 -3.03271484 206.62280273 C4.64538718 208.30593347 13.43740798 211.59231614 18.22509766 218.23217773 C22.60090127 226.84596437 25.090158 236.1449304 22.19384766 245.48608398 C20.3301012 250.56338115 18.50960142 254.88887829 15.21728516 259.18530273 C15.21728516 259.84530273 15.21728516 260.50530273 15.21728516 261.18530273 C14.70166016 261.43280273 14.18603516 261.68030273 13.65478516 261.93530273 C11.04595223 263.22883466 11.04595223 263.22883466 8.02978516 265.18530273 C-3.34563967 271.64423039 -17.56609415 269.89630525 -29.72167969 266.77612305 C-44.1989262 262.62604764 -57.70792841 255.62618073 -70.85302734 248.40795898 C-91.82971571 236.9804461 -112.61366561 230.30263688 -136.46630859 236.79858398 C-154.21981122 242.18123084 -167.47912807 252.93064526 -176.47021484 269.24780273 C-183.40650825 283.39784129 -187.72400026 298.65706895 -183.78271484 314.18530273 C-183.53650391 315.3312793 -183.29029297 316.47725586 -183.03662109 317.65795898 C-180.78349546 327.34139228 -177.1125987 334.87411563 -171.78271484 343.18530273 C-171.115625 344.26618164 -171.115625 344.26618164 -170.43505859 345.36889648 C-167.29557709 350.14729375 -163.1934866 353.63536933 -158.78271484 357.18530273 C-158.13044922 357.7125293 -157.47818359 358.23975586 -156.80615234 358.78295898 C-143.37110038 369.24731221 -127.024291 374.57353249 -109.90771484 372.77905273 C-93.66674641 370.37167427 -79.874069 363.81965782 -69.39208984 350.98217773 C-62.22360851 342.97853353 -54.77330037 338.70422213 -44.09912109 337.91186523 C-36.93051224 337.7271439 -31.24032243 338.01741977 -24.78271484 341.18530273 C-24.11111328 341.49338867 -23.43951172 341.80147461 -22.74755859 342.11889648 C-16.10899842 345.72193212 -12.86920535 353.40682187 -9.58642578 359.85400391 C-7.09002462 364.78751183 -7.09002462 364.78751183 -3.78271484 369.18530273 C-3.12271484 369.18530273 -2.46271484 369.18530273 -1.78271484 369.18530273 C-1.54939453 369.92135742 -1.31607422 370.65741211 -1.07568359 371.41577148 C3.31444573 380.81940197 16.9374652 387.3128694 26.21728516 391.18530273 C40.2216853 395.97670485 57.23872438 396.08867342 71.21728516 391.18530273 C72.22146484 390.84499023 73.22564453 390.50467773 74.26025391 390.15405273 C81.72453086 387.35376632 87.24511025 383.39346968 93.21728516 378.18530273 C94.22791016 377.44280273 95.23853516 376.70030273 96.27978516 375.93530273 C108.66386111 365.44567466 116.64132973 347.83341706 118.96728516 331.99780273 C119.97884373 323.17164044 119.97884373 323.17164044 117.21728516 315.18530273 C114.876098 314.03662138 112.57820685 313.02014022 110.16650391 312.04467773 C101.96459807 308.59265268 94.07419317 304.67006312 86.18579102 300.55883789 C83.99522678 299.41729372 81.80093423 298.28317882 79.60595703 297.15014648 C78.19102792 296.41748973 76.77630627 295.68443216 75.36181641 294.95092773 C74.71598099 294.61651672 74.07014557 294.28210571 73.40473938 293.93756104 C70.67989147 292.51604239 68.01435675 291.06049395 65.39575195 289.44995117 C63.34882994 288.01795073 63.34882994 288.01795073 61.21728516 288.18530273 C60.99041016 287.64905273 60.76353516 287.11280273 60.52978516 286.56030273 C59.22103114 283.98769588 59.22103114 283.98769588 56.77978516 281.43530273 C50.64193374 274.15678867 49.77625429 264.75282756 50.39697266 255.50952148 C51.55115913 247.93664494 55.14449366 242.17723129 60.59228516 236.87280273 C70.35127345 230.5991674 79.71586791 228.58656099 91.29150391 230.76342773 C97.60798009 232.50699707 103.1428302 235.10126439 108.84228516 238.24780273 C132.22629588 251.15507675 158.37956783 262.16213165 185.29150391 255.09448242 C204.87728931 249.39314078 218.58378037 237.12781339 228.53417969 219.53442383 C237.24253038 203.30461863 238.42042417 184.94511137 233.59619141 167.35717773 C228.85938979 152.02165025 217.09335383 137.15453121 203.21728516 129.18530273 C202.16927734 128.56913086 201.12126953 127.95295898 200.04150391 127.31811523 C184.83404505 119.01687495 168.08384172 117.06522785 151.21728516 121.18530273 C131.23634705 127.82831592 119.28901082 139.15881691 108.77978516 156.99780273 C104.74793729 163.41210616 99.623966 167.37133119 92.34228516 169.56030273 C84.12524673 171.16442577 74.47701614 171.3450665 67.12353516 166.92749023 C58.08654899 160.48695159 53.7729031 153.27902509 51.67822266 142.38061523 C50.18077279 130.08759656 54.25486958 120.72908439 60.21728516 110.18530273 C60.78576172 109.51241211 61.35423828 108.83952148 61.93994141 108.14624023 C63.77606932 105.32747506 63.64062492 103.48819121 63.21728516 100.18530273 C55.91735288 86.04560582 40.4444193 74.01636087 25.45166016 68.77124023 C-2.8701799 60.53539135 -28.65811749 69.43448029 -48.78271484 90.18530273 Z " fill="#EE542E" transform="translate(377.78271484375,163.814697265625)"/>
<path d="M0 0 C0.33 0 0.66 0 1 0 C1.33 3.96 1.66 7.92 2 12 C1.01 11.67 0.02 11.34 -1 11 C-1 12.65 -1 14.3 -1 16 C-1.33 16 -1.66 16 -2 16 C-1.85764543 14.27054347 -1.71095618 12.54144346 -1.5625 10.8125 C-1.48128906 9.84957031 -1.40007812 8.88664062 -1.31640625 7.89453125 C-1.02333849 5.21350398 -0.57296246 2.6337014 0 0 Z " fill="#EA563A" transform="translate(503,489)"/>
<path d="M0 0 C0.66 0.33 1.32 0.66 2 1 C1.401875 1.268125 0.80375 1.53625 0.1875 1.8125 C-2.05569277 2.86047309 -2.05569277 2.86047309 -3.4375 4.6875 C-3.953125 5.120625 -4.46875 5.55375 -5 6 C-7.6875 5.6875 -7.6875 5.6875 -10 5 C-6.76527494 2.84351662 -3.62848922 1.38542316 0 0 Z " fill="#E65639" transform="translate(505,230)"/>
<path d="M0 0 C0.33 0 0.66 0 1 0 C1.25 3.3125 1.25 3.3125 1 7 C-0.32 7.99 -1.64 8.98 -3 10 C-2.01 6.7 -1.02 3.4 0 0 Z " fill="#E65439" transform="translate(143,418)"/>
</svg>
